<svg xmlns="http://www.w3.org/2000/svg" viewBox="25.2 82 301.1 316" enable-background="new 25.2 82 301.1 316"><style type="text/css">.Graphic_x0020_Style{fill:none;stroke:#21667C;stroke-width:0.75;stroke-linecap:round;stroke-linejoin:round;stroke-miterlimit:10;} .st0{fill:none;stroke:#21667C;stroke-linecap:round;stroke-linejoin:round;stroke-miterlimit:10;} .st1{fill:#21667C;} .st2{fill:#C2C4B7;} .st3{fill:#F3F5F6;} .st4{fill:#111011;} .st5{fill:#B44945;}</style><path class="Graphic_x0020_Style" d="M242.5 374l-68.7 23.2-23.3-23.2zm-68.7 23.2l-81-23.2h57.7zm-81-23.2l-60-64.5 34 12.7zm57.7 0h-57.7l-26-51.8zm0 0l-83.7-51.8 66.2-13.2zm66-51.8l-66 51.8-17.5-65zm26 51.8h-92l66-51.8zm48-64.5l-48 64.5-26-51.8zm17.5 12.7l-65.5 51.8 48-64.5zm17.5-82.2l-17.5 82.2-17.5-12.7zm0 0l-35 69.5-23-69.3zm-35 69.5l-74 12.7 51-82zm-23-69.3l-51 82-40-82.2zm-51 82l-83.5-13.2 43.5-69zm-40-82.2l-43.5 69-48.5-69.5zm-43.5 69l-66.2 13.2 17.7-82.7zm-48.5-69.5l-17.7 82.7-40.8-82.2zm-17.7 82.7l-34-12.7-6.8-69.5zm-5.3-152l-35.5 69.8 17-82.5zm23 69.3l-58.5.5 35.5-69.8zm50-82l-50 82-23-69.3zm42 82.5l-92-.5 50-82zm42.5-69.2l-42.5 69.2-42-82.5z"/><path class="st0" d="M267.5 240.2l-91-.2 42.5-69.2z"/><path class="Graphic_x0020_Style" d="M284.8 157.5l-17.3 82.7-48.5-69.4zm40.7 82.5l-58 .2 17.3-82.7zm0 0l-40.7-82.5 33.4 12.7zm-7.3-69.8l-33.4-12.7-26-51.5zm-99.2.6l-84.5-13.3 67-51.5zm65.8-13.3l-65.8 13.3-17.5-64.8zm0 0l-83.3-51.5h57.3zm-26-51.5h-57.3l-23.3-23.2zm-57.3 0h-92l68.7-23.2zm0 0l-67 51.5-25-51.5zm-67 51.5l-73 12.7 48-64.2zm-25-51.5l-48 64.2-18.5-12.7z"/><circle class="st1" cx="134.5" cy="157.5" r="1.4"/><circle class="st1" cx="109.5" cy="106" r="1.4"/><circle class="st1" cx="61.5" cy="170.2" r="1.4"/><circle class="st1" cx="43" cy="157.5" r="1.4"/><circle class="st1" cx="26" cy="240" r="1.4"/><circle class="st1" cx="84.5" cy="239.5" r="1.4"/><circle class="st1" cx="176.5" cy="240" r="1.4"/><circle class="st1" cx="219" cy="170.8" r="1.4"/><circle class="st1" cx="178.2" cy="82.8" r="1.4"/><circle class="st1" cx="258.8" cy="106" r="1.4"/><circle class="st1" cx="201.5" cy="106" r="1.4"/><circle class="st1" cx="284.8" cy="157.5" r="1.4"/><circle class="st1" cx="318.2" cy="170.2" r="1.4"/><circle class="st1" cx="325.5" cy="240" r="1.4"/><circle class="st1" cx="267.5" cy="240.2" r="1.4"/><circle class="st1" cx="32.8" cy="309.5" r="1.4"/><circle class="st1" cx="66.8" cy="322.2" r="1.4"/><circle class="st1" cx="133" cy="309" r="1.4"/><circle class="st1" cx="216.5" cy="322.2" r="1.4"/><circle class="st1" cx="290.5" cy="309.5" r="1.4"/><circle class="st1" cx="308" cy="322.2" r="1.4"/><circle class="st1" cx="242.5" cy="374" r="1.4"/><circle class="st1" cx="173.8" cy="397.2" r="1.4"/><circle class="st1" cx="150.5" cy="374" r="1.4"/><circle class="st1" cx="92.8" cy="374" r="1.4"/><path class="st2" d="M247.4-79h74.2v96h-74.2z"/><path class="st3" d="M-86.2-79h74.2v96.4h-74.2z"/><path class="st1" d="M25.2-79h73.9v96h-73.9z"/><path class="st4" d="M136.3-79h74.2v96h-74.2z"/><path class="st5" d="M358.8-79h74.2v96h-74.2z"/></svg>