<svg xmlns="http://www.w3.org/2000/svg" viewBox="-159.3 -446.1 68.3 68.3" enable-background="new -159.3 -446.1 68.3 68.3"><style type="text/css">.st0{fill:none;stroke:#21657C;stroke-width:3;stroke-miterlimit:10;} .st1{fill:none;stroke:#21657C;stroke-width:2.7737;stroke-miterlimit:10;} .st2{fill:#21657C;}</style><circle class="st0" cx="-125.1" cy="-412" r="32.7"/><path class="st2" d="M-129-413.3s3.9-.3 3.9-4.8c0-4.6-3.2-6.8-7.2-6.8h-13.2v25.5h13.2s8.1.3 8.1-7.5c-.1-.1.3-6.4-4.8-6.4zm-10.8-7.1h7.5s1.8 0 1.8 2.6-1.1 3-2.3 3h-6.9v-5.6zm7.1 16.4h-7.1v-6.8h7.4s2.7 0 2.7 3.5c0 2.9-1.9 3.2-3 3.3zm19.2-14.5c-9.8 0-9.8 9.8-9.8 9.8s-.7 9.7 9.8 9.7c0 0 8.7.5 8.7-6.8h-4.5s.1 2.7-4.1 2.7c0 0-4.5.3-4.5-4.4h13.2c.1.1 1.5-11-8.8-11zm4 7.7h-8.4s.5-3.9 4.5-3.9c3.9-.1 3.9 3.9 3.9 3.9zm-9.5-12.7h10.5v3.1h-10.5z"/></svg>