<svg xmlns="http://www.w3.org/2000/svg" viewBox="-9.8 -446.1 68.3 68.3" enable-background="new -9.8 -446.1 68.3 68.3"><style type="text/css">.st0{fill:none;stroke:#21657C;stroke-width:3;stroke-miterlimit:10;} .st1{fill:none;stroke:#21657C;stroke-width:2.7737;stroke-miterlimit:10;} .st2{fill:#21657C;}</style><circle class="st0" cx="24.4" cy="-412" r="32.7"/><path class="st2" d="M26.8-418.4c3.7-2.2 5.6.9 3.7 4.4-1.9 3.5-3.6 5.8-4.5 5.8-.9 0-1.6-2.3-2.6-6.4-1.1-4.2-1.1-11.8-5.4-11-4.1.8-9.6 7.3-9.6 7.3l1.3 1.7s2.7-2.1 3.6-1.1 4.3 13.8 5.4 16.2c1 2.1 3.7 4.8 6.7 2.8 3-1.9 13-10.5 14.8-20.6 1.8-10-12-7.9-13.4.9z"/></svg>