<svg xmlns="http://www.w3.org/2000/svg" viewBox="214.5 -446.1 68.3 68.3" enable-background="new 214.5 -446.1 68.3 68.3"><style type="text/css">.st0{fill:none;stroke:#21657C;stroke-width:3;stroke-miterlimit:10;} .st1{fill:none;stroke:#21657C;stroke-width:2.7737;stroke-miterlimit:10;} .st2{fill:#21657C;}</style><circle class="st0" cx="248.7" cy="-412" r="32.7"/><path class="st2" d="M263.8-424.5c-1.3.8-2.7 1.3-4.2 1.6-1.2-1.3-2.9-2.1-4.8-2.1-3.6 0-6.6 2.9-6.6 6.6 0 .5.1 1 .2 1.5-5.5-.3-10.3-2.9-13.5-6.9-.6 1-.9 2.1-.9 3.3 0 2.3 1.2 4.3 2.9 5.5-1.1 0-2.1-.3-3-.8v.1c0 3.2 2.3 5.8 5.3 6.4-.5.1-1.1.2-1.7.2-.4 0-.8 0-1.2-.1.8 2.6 3.3 4.5 6.1 4.6-2.2 1.8-5.1 2.8-8.2 2.8-.5 0-1.1 0-1.6-.1 2.9 1.9 6.4 2.9 10.1 2.9 12.1 0 18.7-10 18.7-18.7v-.9c1.3-.9 2.4-2.1 3.3-3.4-1.2.5-2.4.9-3.8 1 1.4-.7 2.4-2 2.9-3.5z"/></svg>