<svg xmlns="http://www.w3.org/2000/svg" viewBox="139.7 -446.1 68.3 68.3" enable-background="new 139.7 -446.1 68.3 68.3"><style type="text/css">.st0{fill:none;stroke:#21657C;stroke-width:3;stroke-miterlimit:10;} .st1{fill:none;stroke:#21657C;stroke-width:2.7737;stroke-miterlimit:10;} .st2{fill:#21657C;}</style><circle class="st0" cx="173.9" cy="-412" r="32.7"/><path class="st1" d="M193.2-412c0 .7 0 1.4-.1 2.1-.7 6.4-4.6 11.9-10 14.8-2.7 1.5-5.8 2.3-9.1 2.3-5.1 0-9.6-2-13.1-5.1-3.8-3.5-6.2-8.6-6.2-14.1 0-1.2.1-2.4.3-3.6 1.3-7.1 6.5-12.8 13.3-14.8 1.8-.5 3.6-.8 5.6-.8 5 0 9.6 1.9 13 5 3.8 3.5 6.3 8.6 6.3 14.2zm-6.3-14.2c-2.6 4.1-6.3 7.4-10.7 9.6-3.5 1.8-7.6 2.7-11.8 2.7-3.3 0-6.5-.6-9.4-1.7 1.3-7.1 6.5-12.8 13.3-14.8 1.8-.5 3.6-.8 5.6-.8 5 0 9.6 1.9 13 5zm6.1 16.4c-.7 6.4-4.6 11.9-10 14.8-2.7 1.5-5.8 2.3-9.1 2.3-5.1 0-9.6-2-13.1-5.1 3.7-6.6 10.1-11.4 17.8-13 1.8-.4 3.6-.6 5.5-.6 3.1 0 6.1.6 8.9 1.6zm-9.9 14.8c-2.7 1.5-5.8 2.3-9.1 2.3-5.1 0-9.6-2-13.1-5.1-3.8-3.5-6.2-8.6-6.2-14.1 0-1.2.1-2.4.3-3.6 1.3-7.1 6.5-12.8 13.3-14.8 3 4.3 5.6 9 7.8 13.8.9 1.9 1.7 3.8 2.4 5.8 2 4.9 3.5 10.2 4.6 15.7z"/></svg>