<svg xmlns="http://www.w3.org/2000/svg" viewBox="-84.5 -446.1 68.3 68.3" enable-background="new -84.5 -446.1 68.3 68.3"><style type="text/css">.st0{fill:none;stroke:#21657C;stroke-width:3;stroke-miterlimit:10;} .st1{fill:none;stroke:#21657C;stroke-width:2.7737;stroke-miterlimit:10;} .st2{fill:#21657C;}</style><circle class="st0" cx="-50.3" cy="-412" r="32.7"/><path class="st2" d="M-37-424.5c-8.3-.6-18.2-.7-26.7 0-2.6.3-4.4 3.5-4.6 5.9-.4 5.1-.4 8 0 13.1.2 2.4 2 5.7 4.6 6 8.6.6 18.4.6 26.7 0 2.6-.5 4.4-3.6 4.6-6 .4-5.1.4-8.3 0-13.5-.2-2.3-1.6-5.4-4.6-5.5zm-17.9 19v-13.1l11.4 6.6-11.4 6.5z"/></svg>